<?xml version="1.0" standalone="no"?>
<!DOCTYPE svg PUBLIC "-//W3C//DTD SVG 20010904//EN"
 "http://www.w3.org/TR/2001/REC-SVG-20010904/DTD/svg10.dtd">
<svg version="1.0" xmlns="http://www.w3.org/2000/svg"
 width="260.000000pt" height="260.000000pt" viewBox="0 0 260.000000 260.000000"
 preserveAspectRatio="xMidYMid meet">
<metadata>
Created by potrace 1.11, written by Peter Selinger 2001-2013
</metadata>
<g transform="translate(0.000000,260.000000) scale(0.100000,-0.100000)"
fill="#000000" stroke="none">
<path d="M1160 2594 c-210 -27 -412 -101 -585 -216 -104 -68 -287 -251 -354
-353 -96 -147 -159 -298 -197 -476 -26 -118 -26 -380 0 -498 59 -273 167 -473
361 -666 193 -194 394 -302 668 -362 116 -25 380 -24 497 1 271 58 474 169
665 360 193 194 303 396 361 666 26 119 26 381 0 499 -112 522 -489 905 -1006
1022 -83 19 -332 33 -410 23z m960 -939 c0 -6 -237 -247 -528 -538 l-527 -527
-295 295 -295 295 177 177 178 178 118 -118 117 -117 355 355 355 355 172
-172 c95 -95 173 -177 173 -183z"/>
</g>
</svg>
