<?xml version="1.0" standalone="no"?>
<!DOCTYPE svg PUBLIC "-//W3C//DTD SVG 20010904//EN"
 "http://www.w3.org/TR/2001/REC-SVG-20010904/DTD/svg10.dtd">
<svg version="1.0" xmlns="http://www.w3.org/2000/svg"
 width="260.000000pt" height="260.000000pt" viewBox="0 0 260.000000 260.000000"
 preserveAspectRatio="xMidYMid meet">
<metadata>
Created by potrace 1.11, written by Peter Selinger 2001-2013
</metadata>
<g transform="translate(0.000000,260.000000) scale(0.100000,-0.100000)"
fill="#000000" stroke="none">
<path d="M1131 2590 c-556 -78 -987 -483 -1107 -1041 -26 -118 -26 -380 0
-498 59 -273 168 -474 360 -666 195 -194 395 -302 667 -361 118 -26 380 -26
498 0 411 89 746 347 921 712 91 189 124 340 124 564 0 176 -12 261 -60 408
-104 317 -350 603 -648 751 -187 93 -334 129 -546 136 -80 2 -174 0 -209 -5z
m989 -935 c0 -6 -237 -247 -528 -538 l-527 -527 -295 295 -295 295 177 177
178 178 118 -118 117 -117 355 355 355 355 172 -172 c95 -95 173 -177 173
-183z"/>
</g>
</svg>
